<svg width="228" height="228" xmlns="http://www.w3.org/2000/svg" xmlns:xlink="http://www.w3.org/1999/xlink" overflow="hidden"><defs><clipPath id="clip0"><rect x="275" y="118" width="228" height="228"/></clipPath></defs><g clip-path="url(#clip0)" transform="translate(-275 -118)"><path d="M384.013 213.579C379.999 209.956 374.821 207.891 369.416 207.758 365.188 207.626 361.117 209.364 358.289 212.508 352.489 219.241 354.593 230.644 363.003 237.973 367.015 241.599 372.194 243.667 377.6 243.801 381.828 243.934 385.898 242.196 388.727 239.051 394.536 232.311 392.432 220.909 384.013 213.579ZM385.129 235.943C383.198 238.034 380.445 239.171 377.6 239.051 373.344 238.909 369.277 237.26 366.124 234.399 359.802 228.891 357.861 220.289 361.887 215.617 363.818 213.525 366.571 212.388 369.416 212.508 373.671 212.651 377.738 214.299 380.892 217.159 387.224 222.669 389.164 231.271 385.138 235.943Z" stroke="#00B050" stroke-width="2.375" fill="#00B050"/><path d="M402.226 178.325C400.675 177.195 398.809 176.579 396.89 176.563 394.541 176.505 392.312 177.597 390.919 179.489 388.632 183.302 389.814 188.245 393.579 190.611 395.131 191.739 396.997 192.354 398.916 192.371 401.264 192.429 403.493 191.336 404.886 189.445 407.18 185.633 405.996 180.686 402.226 178.325ZM401.015 186.692C400.499 187.313 399.722 187.657 398.916 187.621 397.989 187.603 397.092 187.299 396.346 186.749 394.747 185.867 394.073 183.918 394.788 182.237 395.305 181.616 396.082 181.272 396.89 181.308 397.816 181.327 398.714 181.632 399.46 182.182 401.141 183.377 401.868 185.483 401.015 186.68Z" stroke="#00B050" stroke-width="2.375" fill="#00B050"/><path d="M363.908 265.333C362.291 264.003 360.269 263.264 358.175 263.241 356.002 263.194 353.927 264.149 352.551 265.832 350.034 269.495 350.923 274.501 354.548 277.073 356.166 278.402 358.188 279.14 360.281 279.165 362.454 279.212 364.528 278.256 365.903 276.574 368.418 272.911 367.53 267.907 363.908 265.333ZM362.186 273.617C361.704 274.153 361.007 274.446 360.286 274.415 359.278 274.39 358.308 274.024 357.536 273.375 356.007 272.392 355.464 270.415 356.275 268.789 356.757 268.252 357.454 267.96 358.175 267.991 359.177 268.013 360.142 268.376 360.911 269.019 362.463 269.99 363.016 271.986 362.186 273.617Z" stroke="#00B050" stroke-width="2.375" fill="#00B050"/><path d="M432.793 196.199 433.555 195.435 432.225 175.712 398.35 151.098 377.498 155.05 376.978 155.57C365.39 167.108 356.185 180.811 349.884 195.9 345.889 205.376 342.675 215.163 340.275 225.162 337.338 238.236 332.252 250.731 325.224 262.139L324.832 262.809 326.732 281.248 362.082 312.816 378.693 308.926 379.213 308.171C382.41 303.457 384.966 298.338 386.813 292.95 390.009 283.717 392.697 274.316 394.864 264.789 398.308 250.777 401.276 238.664 410.969 222.849 417.189 213.152 424.512 204.209 432.793 196.199ZM390.249 263.68C388.119 273.049 385.477 282.295 382.336 291.375L382.336 291.375C380.722 296.076 378.532 300.559 375.814 304.72L363.407 307.625 331.288 278.93 329.727 263.863C336.792 252.265 341.912 239.589 344.884 226.338 347.233 216.559 350.375 206.987 354.28 197.719 360.244 183.427 368.919 170.425 379.828 159.432L397.215 156.147 427.632 178.251 428.672 193.606C420.43 201.67 413.134 210.646 406.924 220.362 396.852 236.812 393.795 249.252 390.249 263.68Z" stroke="#00B050" stroke-width="2.375" fill="#00B050"/><path d="M497.775 270.164C497.37 269.254 496.441 268.694 495.448 268.76 487.65 269.273 480.692 263.709 474.234 257.959 468.909 253.194 464.062 247.92 459.763 242.212 455.134 236.301 451.788 232.031 444.235 229.699 435.051 226.849 425.109 230.758 417.669 235.161 418.706 233.192 419.851 231.171 421.138 229.069 435.248 206.032 464.349 184.346 464.349 184.346L389.658 130.074C368.476 143.907 351.645 163.456 341.115 186.459 339.995 181.907 337.702 177.727 334.465 174.335 329.76 169.732 325.241 169.131 319.522 168.369 314.004 167.746 308.567 166.544 303.301 164.783 297.978 162.99 290.57 159.902 287.699 153.82 287.139 152.634 285.724 152.126 284.538 152.686 284.086 152.899 283.713 153.249 283.472 153.687 279.372 161.12 277.681 172.981 281.937 179.949 284.777 183.868 288.791 186.78 293.397 188.262 293.406 188.269 293.407 188.283 293.4 188.292 293.399 188.293 293.398 188.294 293.397 188.295 291.196 191.002 290.531 194.645 291.634 197.954 292.972 202.229 297.643 206.504 305.345 207.737 305.357 207.738 305.366 207.748 305.366 207.76 305.365 207.763 305.364 207.767 305.362 207.77 304.826 208.785 304.541 209.914 304.533 211.062 304.559 212.986 305.469 214.792 307.001 215.957 311.276 219.503 318.835 218.971 322.336 218.486 323.628 220.778 325.431 222.742 327.604 224.224L328.157 224.611C325.297 236.433 320.48 247.694 313.907 257.928 310.262 263.892 305.347 268.979 299.512 272.829L367.613 333.605C367.613 333.605 387.71 326.287 398.044 296.838 401.25 287.687 403.956 278.369 406.15 268.924 406.556 269.027 406.983 269.018 407.385 268.898L408.024 268.68C410.154 272.66 415.125 281.115 419.875 283.338 421.824 284.384 424.167 284.384 426.117 283.338 427.405 282.59 428.453 281.489 429.138 280.165 429.141 280.155 429.152 280.15 429.162 280.154 429.167 280.156 429.171 280.16 429.173 280.165 435.683 289.416 442.421 291.289 446.803 291.289 447.35 291.29 447.897 291.261 448.441 291.202 450.904 290.98 453.171 289.767 454.721 287.841 456.046 286.086 456.909 284.026 457.231 281.851 457.231 281.83 457.25 281.823 457.265 281.837 461.046 284.996 467.04 289.086 472.961 289.34 482.698 289.815 492.911 280.984 497.637 272.377 498.027 271.702 498.078 270.883 497.775 270.164ZM473.17 284.594C465.591 284.271 456.889 275.037 456.804 274.945 455.909 273.986 454.406 273.934 453.447 274.829 452.899 275.341 452.625 276.081 452.707 276.826 453.01 279.62 452.415 282.438 451.007 284.87 450.247 285.813 449.128 286.397 447.919 286.478 441.744 287.148 435.55 282.469 430.47 273.287 429.834 272.14 428.388 271.725 427.241 272.361 426.577 272.73 426.129 273.393 426.036 274.147 425.663 277.158 424.646 278.723 423.818 279.182 423.632 279.281 423.074 279.59 421.889 279.034 418.564 277.477 413.607 269.371 411.273 264.625 410.698 263.46 409.294 262.972 408.121 263.531 408.121 263.531 407.841 263.659 407.409 263.839 408.121 260.911 408.853 258.087 409.653 255.301 410.108 253.707 409.185 252.045 407.591 251.59 407.317 251.512 407.035 251.474 406.751 251.475L406.751 251.475C406.062 251.746 405.537 252.319 405.326 253.028 404.2 256.909 403.25 260.835 402.219 265.013L401.72 267.048 401.587 267.582C399.419 276.951 396.74 286.194 393.562 295.27 386.15 316.37 373.7 325.1 368.435 327.969L307.025 273.142C311.352 269.506 315.059 265.19 317.999 260.362 325.013 249.342 330.119 237.218 333.102 224.5 333.332 223.607 333.029 222.661 332.323 222.068L329.444 219.674C328.786 219.134 328.191 218.521 327.673 217.845L327.452 217.562C326.826 216.729 326.281 215.837 325.825 214.9 325.377 213.874 324.274 213.3 323.177 213.523 320.752 214.017 313.135 214.845 310.038 212.28 309.3 211.672 309.297 211.202 309.295 211.024 309.589 209.588 310.444 208.329 311.67 207.526 312.675 206.682 312.806 205.184 311.963 204.18 311.511 203.641 310.844 203.331 310.141 203.331L310.129 203.331C300.762 203.317 296.935 198.897 296.19 196.522 295.396 193.698 296.682 190.703 299.277 189.333 300.429 188.705 300.853 187.262 300.225 186.111 299.899 185.513 299.331 185.083 298.667 184.932 296.021 184.327 288.592 181.814 286.006 177.489 283.393 173.214 283.868 165.773 285.935 159.836 285.941 159.824 285.956 159.821 285.967 159.828 285.97 159.83 285.973 159.833 285.975 159.836 290.233 164.901 296.812 167.609 301.785 169.286 307.335 171.151 313.067 172.425 318.885 173.086 324.296 173.798 327.561 174.242 331.135 177.741 335.146 182.187 337.385 187.951 337.427 193.938 337.438 194.213 337.495 194.483 337.595 194.739 334.764 201.88 332.791 207.868 331.278 213.026 330.99 214.306 331.794 215.577 333.074 215.864 334.247 216.128 335.431 215.475 335.833 214.342 337.945 207.15 340.451 200.08 343.341 193.164 353.019 170.086 369.017 150.21 389.494 135.824L456.469 184.5C447.33 191.91 428.055 208.694 417.084 226.597 414.73 230.42 412.615 234.386 410.753 238.472 409.99 240.099 409.306 241.692 408.682 243.265 408.406 243.907 408.703 244.651 409.346 244.927 409.664 245.064 410.025 245.064 410.344 244.927L413.522 243.63 413.966 243.379C420.421 238.529 432.569 231.078 442.841 234.259 448.976 236.159 451.629 239.545 456.034 245.162 460.506 251.095 465.547 256.576 471.085 261.528 476.906 266.711 483.627 272.147 491.377 273.33 491.39 273.332 491.399 273.344 491.396 273.357 491.396 273.36 491.395 273.363 491.393 273.365 486.85 279.55 479.597 284.932 473.168 284.594Z" stroke="#00B050" stroke-width="2.375" fill="#00B050"/></g></svg>