<svg width="212" height="212" xmlns="http://www.w3.org/2000/svg" xmlns:xlink="http://www.w3.org/1999/xlink" overflow="hidden"><defs><clipPath id="clip0"><rect x="117" y="360" width="212" height="212"/></clipPath></defs><g clip-path="url(#clip0)" transform="translate(-117 -360)"><path d="M305.812 526.95 278.208 499.346C274.454 495.592 269.375 494.267 264.517 495.15L254.8 485.433C263.413 474.392 268.492 460.258 268.492 445.242 268.492 408.804 238.679 378.992 202.242 378.992 165.804 378.992 135.992 408.804 135.992 445.242 135.992 481.679 165.804 511.492 202.242 511.492 217.258 511.492 231.171 506.413 242.433 497.8L252.15 507.517C251.267 512.375 252.592 517.454 256.346 521.208L283.95 548.812C287.042 551.904 291.017 553.45 294.992 553.45 298.967 553.45 302.942 551.904 306.033 548.812 311.775 542.629 311.775 532.912 305.812 526.95ZM202.021 498.021C172.871 498.021 149.021 474.171 149.021 445.021 149.021 415.871 172.871 392.021 202.021 392.021 231.171 392.021 255.021 415.871 255.021 445.021 255.021 474.171 231.171 498.021 202.021 498.021Z" stroke="#000000" stroke-width="2.20833" fill="#0070C0"/></g></svg>